<?xml version="1.0" encoding="UTF-8" standalone="no"?>
<svg height="1000" width="1000" viewBox="0 0 800 1000" version="1.1" xmlns="http://www.w3.org/2000/svg" xmlns:xlink="http://www.w3.org/1999/xlink">
        <symbol id="DashAnimate">
            <animate
              attributeName="stroke-dashoffset" 
              dur="1s" 
              repeatCount="indefinite"
              keyTimes="0;1"
              calcMode="linear"
              values="40;0"
            />
        </symbol>
        
        <g
          fill="#fff"
          stroke-width="1"
          stroke="green"
          font-size="20"
          text-anchor="middle"
          dominant-baseline="middle"
        >
          <path d="m640 40h110" />
          <path d="m700 40v15" stroke-dasharray="10"/>
          {/* 701 */}
          <rect x="685" y="55" width="30" height="55" />
          <text
            x="700"
            y="81.5"
            transform="rotate(90,700,81.5)"
            fill="green"
            stroke="none"
          >
            701
          </text>

          <path d="m700 110v23h-200v50" stroke-dasharray="10">
            <use xlink:href="#DashAnimate" />
          </path>
          <path d="m500 154h-60" stroke-dasharray="10"/>

          {/* Tr1-1 */}
          <text x="410" y="120" fill="green" stroke="none">
            Tr1-1
          </text>
          <circle cx="400" cy="154" r="20" />
          <circle cx="420" cy="154" r="20" />

          {/* Cb1-1 */}
          <text x="440" y="210" fill="green" stroke="none">
            Cb1-1
          </text>
          <rect x="485" y="183" width="30" height="55" />
          <path d="m500 238v111" stroke-dasharray="10"/>

          <rect x="558" y="218" width="100" height="155" strokeDasharray="20" />

          {/* Tr1-2 */}
          <path d="m500 265h73" stroke-dasharray="10"/>
          <circle cx="593" cy="265" r="20" />
          <circle cx="613" cy="265" r="20" />
          <text x="700" y="265" fill="green" stroke="none">
            Tr1-2
          </text>

          {/* Tr1-3 */}
          <path d="m500 328h73" stroke-dasharray="10"/>
          <circle cx="593" cy="328" r="20" />
          <circle cx="613" cy="328" r="20" />
          <text x="700" y="328" fill="green" stroke="none">
            Tr1-3
          </text>

          {/* Cb1-2 */}
          <text x="440" y="377" fill="green" stroke="none">
            Cb1-2
          </text>
          <rect x="485" y="350" width="30" height="55" />

          {/* Cb1-3 */}
          <path d="m500 422h-55" stroke-dasharray="10"/>
          <rect x="390" y="407" width="55" height="30" />
          <text x="350" y="422" fill="green" stroke="none">
            Cb1-3
          </text>

          {/* Cb1-4 */}
          <path d="m500 405v40" stroke-dasharray="10"/>
          <rect x="473" y="445" width="55" height="30" />
          <text x="570" y="460" fill="green" stroke="none">
            Cb1-4
          </text>

          {/* Tr1-4 */}
          <path d="m500 475v35" stroke-dasharray="10"/>
          <circle cx="500" cy="530" r="20" />
          <circle cx="500" cy="550" r="20" />
          <text x="570" y="540" fill="green" stroke="none">
            Tr1-4
          </text>

          {/* FZX1-1 */}
          <path d="m500 570v40"  stroke-dasharray="10"/>
          <rect
            x="473"
            y="610"
            width="55"
            height="30"
          />
          <text x="425" y="610" fill="green" stroke="none">
            FZX1-1
          </text>

          {/* FZX1-2 */}
          <path
            d="m473 625l-213 75"
            stroke-dasharray="10"
          />
          <rect
            x="233"
            y="700"
            width="55"
            height="30"
          />
          <text x="180" y="715" fill="green" stroke="none">
            FZX1-2
          </text>

          {/* FZX1-3 */}
          <path
            d="M500 640v60"
            stroke-dasharray="10"
          />
          <rect
            x="473"
            y="700"
            width="55"
            height="30"
          />
          <text x="420" y="715" fill="green" stroke="none">
            FZX1-3
          </text>

          {/* FZX1-4 */}
          <path
            d="m527 625l213 75"
            stroke-dasharray="10"
          />
          <rect
            x="713"
            y="700"
            width="55"
            height="30"
          />
          <text x="660" y="715" fill="green" stroke="none">
            FZX1-4
          </text>

          {/* G1 */}
          <path
            d="m260 730l-160 70"
            stroke-dasharray="10"
          />
          <rect
            x="70"
            y="800"
            width="60"
            height="130"
          />
          <text x="100" y="960" fill="green" stroke="none">
            G1
          </text>

          {/* G2 */}
          <path
            d="m260 730v70"
            stroke-dasharray="10"
          />

          <rect
            x="230"
            y="800"
            width="60"
            height="130"
          />
          <text x="260" y="960" fill="green" stroke="none">
            G2
          </text>

          {/* G3 */}
          <path
            d="m500 730l-80 70"
            stroke-dasharray="10"
          />
          <rect
            x="390"
            y="800"
            width="60"
            height="130"
          />
          <text x="410" y="960" fill="green" stroke="none">
            G3
          </text>

          {/* G4 */}
          <path
            d="m500 730l80 70"
            stroke-dasharray="10"
          />
          <rect
            x="550"
            y="800"
            width="60"
            height="130"
          />
          <text x="580" y="960" fill="green" stroke="none">
            G4
          </text>

          {/* G5 */}
          <path
            d="m740 730v70"
            stroke-dasharray="10"
          />
          <rect
            x="710"
            y="800"
            width="60"
            height="130"
          />
          <text x="740" y="960" fill="green" stroke="none">
            G5
          </text>
        </g>
      </svg>